<?xml version="1.0" encoding="iso-8859-1"?>
<!-- Uploaded to: SVG Repo, www.svgrepo.com, Generator: SVG Repo Mixer Tools -->
<svg version="1.1" id="Layer_1" xmlns="http://www.w3.org/2000/svg" xmlns:xlink="http://www.w3.org/1999/xlink" 
	 viewBox="0 0 512 512" xml:space="preserve">
<path style="fill:#41388D;" d="M509.075,294.814C510.999,282.156,512,269.195,512,256C512,114.616,397.385,0,256,0S0,114.616,0,256
	c0,122.287,85.75,224.531,200.396,249.925L509.075,294.814z"/>
<path style="fill:#30275E;" d="M509.075,294.814l-245.84-245.84l-116.87,402.922l54.03,54.03C218.3,509.892,236.902,512,256,512
	C384.19,512,490.371,417.78,509.075,294.814z"/>
<polygon style="fill:#2598FE;" points="263.235,48.974 218.713,48.974 196.452,138.017 263.235,138.017 "/>
<rect x="174.191" y="48.974" style="fill:#5CB2FE;" width="44.522" height="89.043"/>
<path style="fill:#2598FE;" d="M124.104,165.843l94.609,94.609V71.235C166.462,71.235,124.104,113.593,124.104,165.843z"/>
<path style="fill:#2185DE;" d="M218.713,71.235v189.217l94.609-94.609C313.322,113.593,270.964,71.235,218.713,71.235z"/>
<polygon style="fill:#5CB2FE;" points="313.322,165.843 174.191,165.843 218.713,451.896 292.287,436.141 "/>
<polygon style="fill:#92CCFF;" points="124.104,165.843 146.365,451.896 218.713,451.896 218.713,165.843 "/>
<polygon style="fill:#2598FE;" points="324.452,154.713 218.713,154.713 207.583,165.843 218.713,176.974 324.452,176.974 "/>
<rect x="112.974" y="154.713" style="fill:#5CB2FE;" width="105.739" height="22.261"/>
<rect x="279.93" y="329.461" style="fill:#C9E5FF;" width="22.261" height="111.304"/>
<polygon style="fill:#92CCFF;" points="399.026,218.713 291.061,218.713 268.8,279.93 291.061,341.148 302.191,341.148 "/>
<g>
	<polygon style="fill:#C9E5FF;" points="183.096,218.713 279.93,341.148 291.061,341.148 291.061,218.713 	"/>
	<polygon style="fill:#C9E5FF;" points="353.038,240.974 291.061,240.974 279.93,285.496 335.331,263.235 	"/>
</g>
<polygon style="fill:#FFFFFF;" points="229.084,240.974 246.792,263.235 291.061,285.496 291.061,240.974 "/>
<rect x="218.713" y="429.635" style="fill:#C9E5FF;" width="144.696" height="22.261"/>
<polygon style="fill:#9C11A9;" points="291.061,263.235 279.93,285.5 291.061,318.887 335.331,263.235 "/>
<polygon style="fill:#D92444;" points="246.792,263.235 291.061,318.887 291.061,263.235 "/>
</svg>